<svg width="250" height="121" viewBox="0 0 637 361" fill="none" xmlns="http://www.w3.org/2000/svg">
<path d="M52.69 248.845L70.44 205.505L88.2 248.845H52.69ZM0 304.775H30L42.22 274.775H98.73L110.94 304.775H141.68L84.38 170.185H57.27L0 304.775Z" fill="#0F73EE"/>
<path d="M191.66 236.055V197.675H220.87C235.19 197.675 243.97 204.175 243.97 216.765V217.155C243.97 228.415 235.76 236.055 221.44 236.055H191.66ZM162.27 304.775H191.67V262.015H214.77L243.41 304.775H277.77L245.12 257.055C262.12 250.755 273.76 237.195 273.76 215.625V215.245C273.76 202.645 269.76 192.145 262.31 184.695C253.52 175.915 240.31 171.145 223.36 171.145H162.27V304.775Z" fill="#0F73EE"/>
<path d="M535.09 304.775H636.84V278.625H564.27V250.555H627.27V224.395H564.27V197.295H635.86V171.145H535.09V304.775ZM407.19 304.775H508.94V278.625H436.39V250.555H499.39V224.395H436.39V197.295H507.98V171.145H407.19V304.775ZM329.87 306.685C344.38 306.685 356.41 302.485 364.62 294.275C372.62 286.275 377.22 274.425 377.22 258.575V171.145H347.05V257.245C347.05 272.705 340.18 279.385 329.11 279.385C319.75 279.385 312.31 274.385 304.67 266.025L286.16 286.645C295.32 297.525 309.06 306.685 329.87 306.685V306.685Z" fill="#0F73EE"/>
<path d="M297.89 357.035C300.36 359.545 303.72 360.785 307.98 360.785C312.24 360.785 315.6 359.545 318.07 357.035C320.54 354.525 321.77 351.115 321.77 346.755V325.955H316.2V346.755C316.346 349.102 315.567 351.414 314.03 353.195C312.354 354.658 310.205 355.464 307.98 355.464C305.755 355.464 303.606 354.658 301.93 353.195C300.389 351.416 299.607 349.104 299.75 346.755V325.955H294.19V346.755C294.19 351.115 295.423 354.541 297.89 357.035ZM263.89 355.225C266.437 358.938 270.42 360.791 275.84 360.785C279.913 360.785 283.147 359.785 285.54 357.785C286.669 356.915 287.582 355.797 288.208 354.517C288.835 353.237 289.157 351.83 289.15 350.405C289.155 349.648 289.074 348.893 288.91 348.155C288.756 347.484 288.466 346.851 288.06 346.295C287.66 345.745 287.27 345.295 286.9 344.815C286.436 344.308 285.888 343.886 285.28 343.565L283.54 342.565C282.879 342.225 282.19 341.944 281.48 341.725L279.48 341.045C279.04 340.905 278.32 340.695 277.33 340.415L275.33 339.865C271.04 338.695 268.9 337.055 268.9 334.925C268.889 334.247 269.041 333.578 269.344 332.972C269.647 332.366 270.092 331.842 270.64 331.445C272.11 330.449 273.869 329.971 275.64 330.085C278.48 330.085 280.577 330.891 281.93 332.505C282.51 333.21 282.924 334.037 283.14 334.925H288.95C288.536 333.149 287.778 331.47 286.72 329.985C284.3 326.651 280.607 324.985 275.64 324.985C272.343 324.826 269.105 325.895 266.55 327.985C265.47 328.835 264.596 329.917 263.992 331.152C263.387 332.386 263.069 333.74 263.06 335.115C263.06 338.695 264.98 341.361 268.82 343.115C271.452 344.202 274.172 345.062 276.95 345.685C278.628 346.074 280.235 346.725 281.71 347.615C282.23 347.922 282.658 348.361 282.952 348.888C283.245 349.416 283.393 350.011 283.38 350.615C283.401 351.337 283.245 352.053 282.924 352.7C282.603 353.347 282.128 353.905 281.54 354.325C280.32 355.238 278.433 355.695 275.88 355.695C272.72 355.695 270.37 354.695 268.82 352.695C268.12 351.821 267.64 350.792 267.42 349.695H261.61C261.928 351.684 262.694 353.575 263.85 355.225H263.89ZM233.75 359.825V337.085L233.27 332.965H233.75L248.51 359.825H256.51V325.955H250.95V348.695L251.43 352.805H250.95L236.19 325.955H228.19V359.825H233.75ZM204.75 330.305C206.39 330.248 208.025 330.529 209.552 331.129C211.079 331.73 212.467 332.637 213.63 333.795C215.86 336.3 217.091 339.536 217.091 342.89C217.091 346.243 215.86 349.48 213.63 351.985C211.21 354.221 208.035 355.463 204.74 355.463C201.445 355.463 198.271 354.221 195.85 351.985C193.633 349.474 192.409 346.239 192.409 342.89C192.409 339.54 193.633 336.306 195.85 333.795C197.005 332.64 198.384 331.734 199.903 331.133C201.422 330.533 203.048 330.251 204.68 330.305H204.75ZM204.75 360.785C207.151 360.859 209.542 360.444 211.777 359.563C214.012 358.683 216.045 357.357 217.75 355.665C221.073 352.242 222.931 347.66 222.931 342.89C222.931 338.12 221.073 333.537 217.75 330.115C214.237 326.819 209.602 324.985 204.785 324.985C199.969 324.985 195.333 326.819 191.82 330.115C188.497 333.537 186.639 338.12 186.639 342.89C186.639 347.66 188.497 352.242 191.82 355.665C193.508 357.341 195.517 358.658 197.727 359.538C199.937 360.418 202.302 360.842 204.68 360.785H204.75ZM165.81 360.785C168.442 360.879 171.058 360.335 173.433 359.197C175.809 358.06 177.873 356.364 179.45 354.255C181.019 352.314 182.215 350.1 182.98 347.725H177.42C176.867 349.168 176.026 350.485 174.95 351.595C172.587 354.001 169.377 355.389 166.004 355.462C162.632 355.535 159.365 354.287 156.9 351.985C154.689 349.471 153.469 346.238 153.469 342.89C153.469 339.542 154.689 336.308 156.9 333.795C158.064 332.63 159.457 331.719 160.99 331.118C162.524 330.517 164.165 330.241 165.81 330.305C167.465 330.253 169.112 330.54 170.651 331.149C172.19 331.758 173.589 332.675 174.76 333.845C175.77 334.848 176.586 336.027 177.17 337.325H182.74C182.101 335.081 181.016 332.989 179.55 331.175C176.257 327.055 171.677 324.991 165.81 324.985C163.426 324.922 161.054 325.34 158.834 326.212C156.615 327.085 154.593 328.395 152.89 330.065C149.538 333.49 147.661 338.092 147.661 342.885C147.661 347.677 149.538 352.279 152.89 355.705C154.585 357.366 156.595 358.671 158.802 359.543C161.009 360.416 163.368 360.838 165.74 360.785H165.81Z" fill="#0F73EE"/>
<path d="M351.04 359.825V354.505H333.86V325.955H328.3V359.825H351.04Z" fill="#0F73EE"/>
<path d="M359.31 331.275V359.825H364.88V331.275H376V325.955H348.18V331.275H359.31Z" fill="#0F73EE"/>
<path d="M475.38 355.225C477.933 358.938 481.917 360.791 487.33 360.785C491.39 360.785 494.623 359.785 497.03 357.785C498.156 356.913 499.066 355.794 499.69 354.515C500.315 353.235 500.636 351.829 500.63 350.405C500.635 349.648 500.554 348.893 500.39 348.155C500.239 347.484 499.953 346.851 499.55 346.295C499.14 345.745 498.76 345.295 498.38 344.815C497.915 344.308 497.367 343.886 496.76 343.565L495.02 342.565C494.38 342.226 493.71 341.944 493.02 341.725L491.02 341.045C490.59 340.905 489.87 340.695 488.87 340.415L486.87 339.865C482.58 338.695 480.43 337.055 480.43 334.925C480.418 334.246 480.571 333.575 480.876 332.969C481.181 332.363 481.628 331.84 482.18 331.445C483.649 330.449 485.408 329.971 487.18 330.085C490.02 330.085 492.11 330.895 493.47 332.505C494.046 333.213 494.459 334.039 494.68 334.925H500.48C500.073 333.148 499.318 331.469 498.26 329.985C495.84 326.651 492.146 324.985 487.18 324.985C483.88 324.826 480.638 325.895 478.08 327.985C477.003 328.837 476.131 329.92 475.529 331.154C474.926 332.388 474.609 333.741 474.6 335.115C474.6 338.695 476.52 341.361 480.36 343.115C482.987 344.204 485.704 345.064 488.48 345.685C490.162 346.072 491.772 346.723 493.25 347.615C493.768 347.923 494.195 348.363 494.489 348.89C494.782 349.417 494.931 350.012 494.92 350.615C494.941 351.337 494.784 352.053 494.464 352.7C494.143 353.347 493.667 353.905 493.08 354.325C491.85 355.235 489.97 355.695 487.42 355.695C484.26 355.695 481.9 354.695 480.36 352.695C479.661 351.819 479.178 350.792 478.95 349.695H473.15C473.46 351.684 474.223 353.576 475.38 355.225V355.225ZM454.19 331.275V359.825H459.75V331.275H470.88V325.955H443.06V331.275H454.19ZM416.45 359.825V337.085L415.97 332.965H416.45L431.21 359.825H439.21V325.955H433.65V348.695L434.13 352.805H433.65L418.87 325.955H410.87V359.825H416.45ZM388.15 331.275H393.47L397.27 345.795H384.52L388.15 331.275ZM380.89 359.825L383.07 351.115H398.65L400.97 359.825H406.77L397.82 325.955H384.03L375.32 359.825H380.89Z" fill="#0F73EE"/>
<path d="M133.91 340.035C133.91 341.575 132.97 342.825 131.81 342.825H29.81C28.65 342.825 27.71 341.575 27.71 340.035C27.71 338.495 28.65 337.235 29.81 337.235H131.81C132.97 337.235 133.91 338.485 133.91 340.035Z" fill="#0F73EE"/>
<path d="M619.14 340.035C619.14 341.575 618.2 342.825 617.04 342.825H515.04C513.88 342.825 512.94 341.575 512.94 340.035C512.94 338.495 513.88 337.235 515.04 337.235H617.04C618.2 337.235 619.14 338.485 619.14 340.035Z" fill="#0F73EE"/>
<path d="M634.47 147.125C634.47 147.295 634.436 147.464 634.371 147.621C634.305 147.778 634.21 147.921 634.089 148.04C633.968 148.16 633.824 148.255 633.667 148.319C633.509 148.384 633.34 148.416 633.17 148.415H45.8501C45.5079 148.415 45.1798 148.279 44.9379 148.037C44.696 147.795 44.5601 147.467 44.5601 147.125C44.5601 146.783 44.696 146.454 44.9379 146.213C45.1798 145.971 45.5079 145.835 45.8501 145.835H633.17C633.513 145.835 633.842 145.97 634.086 146.212C634.329 146.454 634.467 146.782 634.47 147.125Z" fill="#0F73EE"/>
<path d="M634.47 147.125H633.47C633.465 147.202 633.432 147.274 633.376 147.328C633.321 147.381 633.247 147.412 633.17 147.415H45.8501C45.7731 147.415 45.6994 147.384 45.645 147.33C45.5906 147.275 45.5601 147.202 45.5601 147.125C45.5601 147.048 45.5906 146.974 45.645 146.92C45.6994 146.865 45.7731 146.835 45.8501 146.835H633.17C633.247 146.837 633.321 146.868 633.376 146.922C633.432 146.975 633.465 147.048 633.47 147.125H635.47C635.467 146.516 635.224 145.934 634.793 145.505C634.362 145.076 633.778 144.835 633.17 144.835H45.8501C45.2427 144.835 44.6602 145.076 44.2308 145.505C43.8013 145.935 43.5601 146.517 43.5601 147.125C43.5601 147.732 43.8013 148.315 44.2308 148.744C44.6602 149.173 45.2427 149.415 45.8501 149.415H633.17C633.778 149.415 634.362 149.174 634.793 148.745C635.224 148.315 635.467 147.733 635.47 147.125H634.47Z" fill="#0F73EE"/>
<path d="M409.48 48.4848L326 0.284821C325.67 0.0981302 325.298 0 324.92 0C324.541 0 324.169 0.0981302 323.84 0.284821L240.36 48.4848C240.024 48.6764 239.745 48.9547 239.554 49.2907C239.362 49.6267 239.264 50.008 239.27 50.3948V146.695C239.272 147.267 239.501 147.815 239.905 148.219C240.31 148.624 240.858 148.852 241.43 148.855H243.58V134.215H251.67C252.24 134.21 252.785 133.98 253.188 133.576C253.59 133.172 253.817 132.625 253.82 132.055V85.9748L263.33 72.6748L273.59 86.0148V115.845C273.59 116.415 273.816 116.962 274.219 117.365C274.623 117.768 275.17 117.995 275.74 117.995H289.8V132.055C289.802 132.627 290.031 133.175 290.435 133.579C290.84 133.984 291.388 134.212 291.96 134.215H298.82C299.39 134.21 299.935 133.98 300.338 133.576C300.74 133.172 300.967 132.625 300.97 132.055V102.395H309.14V132.045C309.141 132.615 309.367 133.161 309.77 133.565C309.968 133.767 310.204 133.928 310.465 134.038C310.726 134.148 311.007 134.205 311.29 134.205H319.4C319.683 134.205 319.963 134.148 320.224 134.038C320.485 133.928 320.722 133.767 320.92 133.565C321.322 133.161 321.549 132.615 321.55 132.045V66.9048L335.33 81.1648V132.055C335.338 132.625 335.568 133.17 335.971 133.574C336.374 133.977 336.919 134.207 337.49 134.215H354.02C354.59 134.21 355.135 133.98 355.538 133.576C355.94 133.172 356.167 132.625 356.17 132.055V92.1148H371.17V104.925C371.167 105.481 371.38 106.016 371.765 106.417C372.149 106.818 372.674 107.054 373.23 107.075L381.03 107.395C381.32 107.404 381.609 107.356 381.88 107.253C382.151 107.15 382.399 106.994 382.61 106.795C382.818 106.592 382.984 106.349 383.097 106.082C383.211 105.814 383.269 105.526 383.27 105.235V72.1348L395.8 59.6048V132.055C395.802 132.627 396.031 133.175 396.435 133.579C396.84 133.984 397.388 134.212 397.96 134.215H406.27V144.545V148.855H408.44C409.01 148.85 409.555 148.62 409.958 148.216C410.36 147.812 410.587 147.265 410.59 146.695V50.3948C410.594 50.006 410.493 49.6234 410.297 49.2872C410.102 48.951 409.82 48.6738 409.48 48.4848V48.4848ZM400.17 129.905V54.3948C400.172 53.9676 400.046 53.5495 399.81 53.1939C399.573 52.8383 399.235 52.5612 398.841 52.3981C398.446 52.235 398.011 52.1933 397.593 52.2782C397.174 52.3631 396.79 52.5708 396.49 52.8748L379.65 69.7148C379.247 70.1185 379.021 70.6649 379.02 71.2348V102.995L375.53 102.855V89.9548C375.53 89.3846 375.303 88.8377 374.9 88.4345C374.497 88.0313 373.95 87.8048 373.38 87.8048H354.03C353.747 87.8035 353.466 87.8581 353.204 87.9656C352.942 88.0731 352.704 88.2312 352.503 88.431C352.302 88.6308 352.143 88.8682 352.034 89.1297C351.926 89.3912 351.87 89.6716 351.87 89.9548V129.905H339.65V80.2948C339.648 79.7366 339.434 79.2001 339.05 78.7948L320.96 60.0848C320.663 59.7757 320.28 59.5624 319.86 59.4725C319.441 59.3827 319.004 59.4202 318.607 59.5804C318.209 59.7406 317.868 60.0161 317.628 60.3715C317.388 60.7269 317.26 61.146 317.26 61.5748V129.905H313.45V100.245C313.451 99.9624 313.396 99.6825 313.287 99.4215C313.179 99.1606 313.02 98.9237 312.82 98.7248C312.416 98.3225 311.87 98.0961 311.3 98.0948H298.83C298.257 98.0977 297.708 98.3237 297.3 98.7248C296.899 99.1297 296.673 99.6753 296.67 100.245V129.905H294.12V115.845C294.121 115.562 294.066 115.281 293.959 115.019C293.852 114.757 293.693 114.519 293.494 114.318C293.294 114.117 293.056 113.958 292.795 113.849C292.533 113.741 292.253 113.685 291.97 113.685H277.9V85.2848C277.903 84.8083 277.748 84.3442 277.46 83.9648L264.98 67.7548C264.778 67.4857 264.515 67.269 264.212 67.1228C263.909 66.9767 263.576 66.9053 263.24 66.9148C262.902 66.9186 262.571 67.0022 262.272 67.1586C261.973 67.315 261.715 67.5398 261.52 67.8148L249.92 84.0248C249.66 84.3936 249.52 84.8336 249.52 85.2848V127.285V129.865H243.57V51.5948L324.9 4.59482L406.27 51.5948V129.905H400.17Z" fill="#0F73EE"/>
</svg>
