<?xml version="1.0" encoding="utf-8"?>
<!-- Generator: Adobe Illustrator 17.0.0, SVG Export Plug-In . SVG Version: 6.00 Build 0)  -->
<!DOCTYPE svg PUBLIC "-//W3C//DTD SVG 1.1//EN" "http://www.w3.org/Graphics/SVG/1.1/DTD/svg11.dtd">
<svg version="1.1" id="Layer_1" xmlns="http://www.w3.org/2000/svg" xmlns:xlink="http://www.w3.org/1999/xlink" x="0px" y="0px"
	 width="400px" height="400px" viewBox="0 0 400 400" enable-background="new 0 0 400 400" xml:space="preserve">
<g>
	<path d="M201.132,111.437c-24.409,0-44.277,19.868-44.277,44.277s19.868,44.277,44.277,44.277s44.277-19.868,44.277-44.277
		S225.541,111.437,201.132,111.437z M201.132,187.34c-17.439,0-31.626-14.188-31.626-31.626s14.188-31.626,31.626-31.626
		s31.626,14.188,31.626,31.626S218.571,187.34,201.132,187.34z"/>
	<path d="M285.783,71.063c-22.91-22.91-53.373-35.529-85.771-35.529c-32.404,0-62.861,12.619-85.771,35.529
		c-42.398,42.392-47.667,122.154-11.411,170.479l97.181,140.345l97.036-140.149C333.45,193.216,328.181,113.455,285.783,71.063z
		 M286.789,234.343L200.012,359.66l-86.916-125.512C80.212,190.3,84.924,118.268,123.192,80.007
		c20.519-20.519,47.8-31.822,76.82-31.822s56.301,11.303,76.827,31.822C315.107,118.268,319.819,190.3,286.789,234.343z"/>
</g>
</svg>
