<?xml version="1.0" encoding="utf-8"?>
<!-- Generator: Adobe Illustrator 17.0.0, SVG Export Plug-In . SVG Version: 6.00 Build 0)  -->
<!DOCTYPE svg PUBLIC "-//W3C//DTD SVG 1.1//EN" "http://www.w3.org/Graphics/SVG/1.1/DTD/svg11.dtd">
<svg version="1.1" id="Layer_1" xmlns="http://www.w3.org/2000/svg" xmlns:xlink="http://www.w3.org/1999/xlink" x="0px" y="0px"
	 width="400px" height="400px" viewBox="0 0 400 400" enable-background="new 0 0 400 400" xml:space="preserve">
<path d="M307.051,383.47c9.706,0.042,19.375-1.221,28.744-3.755c10.902-3.056,20.197-10.217,25.931-19.98l18.678-31.044
	c5.95-9.884,3.069-22.7-6.538-29.087l-74.283-49.538c-9.427-6.236-22.063-4.184-29.032,4.715l-21.638,27.821
	c-2.781,3.667-7.836,4.73-11.859,2.495l-4.116-2.269c-13.644-7.437-30.622-16.696-64.828-50.914s-43.484-51.208-50.92-64.828
	l-2.257-4.116c-2.265-4.022-1.222-9.099,2.446-11.901l27.803-21.632c8.896-6.97,10.95-19.602,4.721-29.032l-49.538-74.283
	c-6.385-9.602-19.192-12.484-29.075-6.544L40.229,38.237c-9.76,5.738-16.921,15.031-19.98,25.931
	c-11.186,40.756-2.77,111.094,100.844,214.721C203.516,361.306,264.876,383.47,307.051,383.47z M32.046,67.403
	c2.234-7.861,7.421-14.554,14.476-18.678l31.062-18.635c4.288-2.58,9.847-1.33,12.617,2.838l26.91,40.401l22.586,33.876
	c2.705,4.09,1.816,9.573-2.043,12.599l-27.809,21.632c-8.463,6.471-10.879,18.18-5.669,27.472l2.208,4.012
	c7.816,14.336,17.534,32.169,53.012,67.641s53.306,45.19,67.635,53.006l4.018,2.214c9.292,5.21,21.002,2.793,27.472-5.669
	l21.632-27.809c3.028-3.856,8.508-4.745,12.599-2.043l74.277,49.538c4.17,2.768,5.421,8.33,2.838,12.617l-18.635,31.062
	c-4.118,7.047-10.802,12.228-18.653,14.458c-37.625,10.33-103.358,1.774-202.832-97.701S21.716,105.034,32.046,67.403z"/>
</svg>
